<svg viewBox="0 0 538 400" fill="none" xmlns="http://www.w3.org/2000/svg">
<path d="M459.272 396.997C464.98 383.617 469.005 369.055 467.1 354.643C466.447 349.756 465.026 345.003 462.889 340.561C461.167 336.939 458.944 333.578 456.285 330.578C455.366 329.519 454.104 328.817 452.721 328.595C451.337 328.372 449.919 328.643 448.715 329.359C448.528 329.467 448.342 329.581 448.17 329.703C447.238 330.361 446.502 331.26 446.043 332.305C445.954 332.505 445.88 332.711 445.821 332.921C445.558 333.801 445.487 334.727 445.613 335.637C446.617 343.054 446.4 350.586 444.969 357.932C444.603 359.803 444.157 361.657 443.629 363.494C442.445 362.014 441.185 360.595 439.855 359.244C436.407 355.748 432.431 352.817 428.073 350.558H428.066C428.044 350.544 428.03 350.537 428.008 350.522C422.723 347.828 415.675 348.946 411.557 350.78C411.284 350.895 411.027 351.024 410.776 351.146C408.627 352.249 407.56 353.518 408.477 354.349C408.685 354.528 408.892 354.715 409.086 354.901C415.329 360.676 420.444 367.563 424.169 375.211V375.218C425.65 378.263 426.898 381.416 427.901 384.649C429.283 389.114 430.429 394.066 433.129 397.707C433.406 398.09 433.705 398.456 434.025 398.803L458.147 398.61C458.205 398.581 458.255 398.56 458.312 398.531L459.272 398.567C459.236 398.395 459.193 398.223 459.15 398.051V398.037C459.129 397.943 459.1 397.843 459.078 397.757C459.057 397.685 459.043 397.621 459.028 397.564C459.071 397.456 459.114 397.356 459.164 397.248C459.2 397.162 459.236 397.083 459.272 396.997Z" fill="#F0F0F0"/>
<path d="M459.15 398.037C459.143 398.09 459.122 398.141 459.089 398.184C459.056 398.227 459.013 398.261 458.963 398.283C458.914 398.305 458.859 398.313 458.806 398.307C458.752 398.302 458.7 398.283 458.656 398.252C457.665 397.532 456.577 396.956 455.426 396.539C455.419 396.532 455.419 396.539 455.419 396.539C453.965 396.016 452.47 395.618 450.949 395.349C450.935 395.349 450.928 395.342 450.913 395.342C450.298 395.22 449.682 395.113 449.066 394.998C446.072 394.446 443.028 393.78 440.435 392.074C439.38 391.42 438.475 390.55 437.78 389.521C437.085 388.492 436.616 387.328 436.403 386.104C436.023 383.703 436.503 381.288 436.703 378.895C436.718 378.723 436.732 378.543 436.739 378.371C436.754 378.149 436.761 377.934 436.761 377.719C436.834 375.546 436.398 373.386 435.486 371.413C434.314 369.05 432.777 366.888 430.931 365.006C429.978 363.981 428.985 362.994 427.951 362.046H427.944C427.901 362.003 427.865 361.967 427.822 361.931C427.822 361.924 427.815 361.917 427.808 361.91C423.388 357.892 418.375 354.58 412.946 352.092C412.753 352.006 412.552 351.912 412.352 351.826C411.829 351.59 411.306 351.368 410.776 351.146C411.027 351.024 411.284 350.895 411.557 350.78C417.612 353.343 423.2 356.893 428.094 361.286C428.259 361.43 428.424 361.58 428.581 361.731C429.82 362.877 431 364.079 432.12 365.335C433.91 367.265 435.361 369.485 436.41 371.9C437.179 373.854 437.519 375.952 437.405 378.049C437.391 378.45 437.362 378.852 437.327 379.26C437.105 381.675 436.61 384.169 437.162 386.584C437.792 389.336 439.926 391.257 442.405 392.432C444.045 393.164 445.766 393.698 447.533 394.023C451.186 394.79 454.96 395.163 458.155 397.126H458.162C458.212 397.162 458.262 397.191 458.305 397.22C458.312 397.22 458.312 397.22 458.312 397.227C458.543 397.364 458.765 397.515 458.978 397.678C458.993 397.685 459.007 397.7 459.021 397.707C459.042 397.722 459.061 397.739 459.078 397.757C459.112 397.795 459.135 397.84 459.148 397.888C459.16 397.937 459.161 397.988 459.15 398.037Z" fill="white"/>
<path d="M428.393 361.976C429.695 360.361 430.38 358.336 430.327 356.262C430.274 354.188 429.486 352.2 428.103 350.654C427.822 350.342 427.325 350.764 427.606 351.076C428.896 352.514 429.63 354.365 429.676 356.297C429.721 358.228 429.075 360.112 427.854 361.609C427.589 361.935 428.13 362.3 428.393 361.976Z" fill="white"/>
<path d="M436.968 377.697C432.758 378.187 428.518 377.071 425.094 374.571C424.754 374.324 424.388 374.863 424.726 375.111C428.295 377.705 432.71 378.858 437.09 378.338C437.507 378.288 437.384 377.648 436.968 377.697Z" fill="white"/>
<path d="M412.989 352.013C412.975 352.041 412.96 352.063 412.946 352.092C412.551 352.817 412 353.446 411.332 353.932C410.665 354.418 409.897 354.749 409.086 354.901C408.892 354.715 408.685 354.528 408.477 354.349C408.509 354.329 408.546 354.316 408.584 354.313C409.364 354.227 410.113 353.957 410.768 353.525C411.423 353.092 411.966 352.51 412.352 351.826C412.387 351.769 412.423 351.705 412.452 351.647C412.476 351.612 412.506 351.581 412.542 351.558C412.578 351.534 412.618 351.518 412.66 351.51C412.702 351.502 412.745 351.503 412.786 351.511C412.828 351.52 412.868 351.537 412.903 351.561C412.972 351.612 413.019 351.686 413.035 351.77C413.051 351.854 413.035 351.941 412.989 352.013Z" fill="white"/>
<path d="M52.4718 3.90088C39.5938 3.91541 27.2475 9.04065 18.1414 18.1522C9.03527 27.2637 3.91308 39.6174 3.89856 52.5031V238.762C3.91308 251.648 9.03527 264.001 18.1414 273.113C27.2475 282.225 39.5938 287.35 52.4718 287.364H485.528C498.406 287.35 510.753 282.225 519.859 273.113C528.965 264.001 534.087 251.648 534.101 238.762V52.5031C534.087 39.6174 528.965 27.2637 519.859 18.1522C510.753 9.04065 498.406 3.91541 485.528 3.90088H52.4718Z" fill="white"/>
<path d="M485.528 291.265H52.4718C38.5602 291.249 25.2229 285.713 15.3859 275.87C5.54895 266.027 0.0156585 252.682 0 238.762V52.503C0.0156585 38.5832 5.54895 25.2379 15.3859 15.3951C25.2229 5.55225 38.5602 0.0156678 52.4718 0H485.528C499.44 0.0156583 512.777 5.55224 522.614 15.3951C532.451 25.2379 537.984 38.5832 538 52.503V238.762C537.984 252.682 532.451 266.027 522.614 275.87C512.777 285.713 499.44 291.249 485.528 291.265ZM52.4718 7.80172C40.6274 7.81512 29.272 12.529 20.8968 20.9092C12.5215 29.2894 7.81046 40.6516 7.79707 52.503V238.762C7.81046 250.614 12.5215 261.976 20.8968 270.356C29.272 278.736 40.6274 283.45 52.4718 283.463H485.528C497.372 283.45 508.728 278.736 517.103 270.356C525.478 261.976 530.189 250.614 530.203 238.762V52.503C530.189 40.6516 525.478 29.2894 517.103 20.9092C508.728 12.529 497.372 7.81512 485.528 7.80172H52.4718Z" fill="#E6E6E6"/>
<path d="M270.163 42.4639H64.2153C59.8198 42.4714 55.6066 44.2219 52.4985 47.3318C49.3905 50.4417 47.641 54.6575 47.6334 59.0556V152C47.6316 152.986 47.723 153.97 47.9064 154.939C47.9713 155.381 48.0753 155.81 48.1792 156.239C49.1227 159.776 51.205 162.903 54.104 165.136C57.003 167.369 60.5568 168.584 64.2153 168.592H270.163C270.501 168.592 270.838 168.579 271.163 168.553H271.397V168.54C271.463 168.542 271.528 168.538 271.592 168.527C271.657 168.527 271.735 168.514 271.8 168.514C271.823 168.516 271.845 168.512 271.865 168.501C272.008 168.488 272.151 168.475 272.281 168.462C272.515 168.423 272.749 168.397 272.97 168.358C272.999 168.347 273.03 168.343 273.061 168.345C273.101 168.325 273.146 168.316 273.191 168.319C273.196 168.314 273.202 168.31 273.209 168.308C273.215 168.306 273.223 168.305 273.23 168.306C273.373 168.28 273.515 168.254 273.658 168.215C273.738 168.204 273.816 168.187 273.892 168.163C274.178 168.098 274.464 168.033 274.737 167.942C274.867 167.903 274.984 167.877 275.114 167.838C275.283 167.786 275.465 167.721 275.634 167.656C275.722 167.631 275.809 167.601 275.894 167.565C275.904 167.565 275.914 167.562 275.923 167.558C275.932 167.553 275.939 167.547 275.946 167.539C276.321 167.406 276.69 167.254 277.05 167.084C277.362 166.941 277.661 166.785 277.96 166.629C278.077 166.577 278.181 166.512 278.298 166.447C278.326 166.434 278.353 166.416 278.376 166.395C278.675 166.213 278.973 166.031 279.259 165.862C279.272 165.849 279.272 165.836 279.285 165.836C279.287 165.836 279.289 165.835 279.29 165.835C279.292 165.834 279.293 165.833 279.295 165.832C279.296 165.831 279.297 165.829 279.297 165.828C279.298 165.826 279.298 165.824 279.298 165.823C279.604 165.631 279.899 165.422 280.182 165.198H280.195C280.273 165.133 280.338 165.081 280.403 165.029C280.494 164.964 280.585 164.886 280.663 164.821C280.819 164.691 280.975 164.561 281.118 164.431C281.206 164.365 281.288 164.291 281.365 164.21C281.585 164.015 281.793 163.807 282.001 163.599C282.112 163.493 282.216 163.38 282.313 163.261C282.475 163.106 282.627 162.941 282.768 162.767C282.898 162.598 283.041 162.429 283.171 162.26C283.325 162.082 283.468 161.896 283.6 161.701C283.834 161.389 284.042 161.076 284.25 160.738C284.418 160.465 284.587 160.179 284.743 159.893C284.821 159.75 284.899 159.594 284.977 159.438C284.99 159.438 284.99 159.425 284.99 159.412C285.133 159.139 285.263 158.866 285.38 158.58C285.432 158.463 285.484 158.359 285.523 158.242C285.627 158.021 285.705 157.787 285.796 157.553C285.939 157.124 286.082 156.681 286.199 156.239C286.303 155.81 286.407 155.381 286.472 154.939C286.655 153.97 286.746 152.986 286.745 152V59.0556C286.737 54.6575 284.988 50.4417 281.879 47.3318C278.771 44.2219 274.558 42.4714 270.163 42.4639Z" fill="#2680FE"/>
<path opacity="0.3" d="M286.745 69.1199H47.6335V70.4202H286.745V69.1199Z" fill="white"/>
<path opacity="0.3" d="M286.745 83.4231H47.6335V84.7234H286.745V83.4231Z" fill="white"/>
<path opacity="0.3" d="M286.745 97.7263H47.6335V99.0266H286.745V97.7263Z" fill="white"/>
<path opacity="0.3" d="M286.745 112.029H47.6335V113.33H286.745V112.029Z" fill="white"/>
<path opacity="0.3" d="M286.745 126.333H47.6335V127.633H286.745V126.333Z" fill="white"/>
<path opacity="0.3" d="M286.745 140.636H47.6335V141.936H286.745V140.636Z" fill="white"/>
<path opacity="0.3" d="M286.472 154.939C286.407 155.381 286.303 155.81 286.199 156.239H47.8155C47.7371 155.81 47.6851 155.375 47.6595 154.939H286.472Z" fill="white"/>
<g opacity="0.1">
<path opacity="0.1" d="M286.745 131.872V152C286.746 152.986 286.655 153.97 286.472 154.939C286.407 155.381 286.303 155.81 286.199 156.239C286.082 156.681 285.939 157.123 285.796 157.553C285.705 157.787 285.627 158.021 285.523 158.242C285.484 158.359 285.432 158.463 285.38 158.58C285.263 158.866 285.133 159.139 284.99 159.412C284.99 159.425 284.99 159.438 284.977 159.438C284.899 159.594 284.821 159.75 284.743 159.893C284.587 160.179 284.418 160.465 284.249 160.738C284.042 161.076 283.834 161.388 283.6 161.701C283.468 161.895 283.325 162.082 283.171 162.26C283.041 162.429 282.898 162.598 282.768 162.767C282.627 162.941 282.475 163.106 282.313 163.261C282.216 163.38 282.112 163.493 282.001 163.599C281.793 163.807 281.585 164.015 281.365 164.21C281.288 164.29 281.206 164.364 281.118 164.431C280.975 164.561 280.819 164.691 280.663 164.821C280.585 164.886 280.494 164.964 280.403 165.029C280.338 165.081 280.273 165.133 280.195 165.198H280.182C279.899 165.422 279.604 165.631 279.298 165.822C279.298 165.824 279.298 165.826 279.297 165.827C279.297 165.829 279.296 165.83 279.295 165.832C279.293 165.833 279.292 165.834 279.29 165.835C279.289 165.835 279.287 165.835 279.285 165.835C279.272 165.835 279.272 165.848 279.259 165.861C279.077 165.991 278.882 166.108 278.688 166.226C278.584 166.291 278.48 166.342 278.376 166.395C278.353 166.416 278.326 166.434 278.298 166.447C278.181 166.512 278.077 166.577 277.96 166.629C277.661 166.785 277.362 166.941 277.05 167.084C276.69 167.254 276.321 167.406 275.946 167.539C275.939 167.547 275.931 167.553 275.923 167.558C275.914 167.562 275.904 167.565 275.894 167.565C275.809 167.601 275.722 167.631 275.634 167.656C275.465 167.721 275.283 167.786 275.114 167.838C274.984 167.877 274.867 167.903 274.737 167.942C274.464 168.033 274.178 168.098 273.892 168.163C273.816 168.186 273.738 168.204 273.658 168.215C273.515 168.254 273.373 168.28 273.23 168.306C273.223 168.305 273.215 168.306 273.209 168.308C273.202 168.31 273.196 168.314 273.191 168.319C273.146 168.316 273.101 168.325 273.061 168.345C273.03 168.343 272.999 168.347 272.97 168.358C272.749 168.397 272.515 168.423 272.281 168.462C272.151 168.475 272.008 168.488 271.865 168.501C271.845 168.511 271.823 168.516 271.8 168.514C271.657 168.527 271.527 168.54 271.397 168.553H271.371C271.228 168.566 271.085 168.566 270.942 168.579C270.683 168.592 270.423 168.592 270.163 168.592H64.2153C60.5568 168.584 57.003 167.369 54.104 165.136C51.205 162.903 49.1226 159.776 48.1792 156.239H47.8154C47.737 155.809 47.685 155.375 47.6595 154.939C47.6464 154.692 47.6334 154.432 47.6334 154.185V131.508C50.3609 131.588 53.0658 132.03 55.6774 132.821C62.7468 134.979 69.6212 138.633 77.0025 138.633C77.5873 138.633 78.1981 138.607 78.7958 138.555C86.567 137.905 92.6097 133.081 97.6388 127.633C98.0416 127.204 98.4445 126.775 98.8214 126.333C99.77 125.279 100.68 124.2 101.563 123.134C104.387 119.566 107.551 116.283 111.011 113.33C111.57 112.875 112.128 112.445 112.7 112.029C116.056 109.526 120.007 107.943 124.162 107.439C124.695 107.387 125.228 107.348 125.76 107.335C131.322 107.166 136.546 109.169 141.303 112.029C141.991 112.445 142.68 112.875 143.343 113.33C145.617 114.872 147.808 116.535 149.905 118.31C153.144 121.156 156.527 123.834 160.042 126.333C160.302 126.515 160.562 126.697 160.821 126.853C161.224 127.126 161.64 127.386 162.056 127.633C165.616 129.923 169.619 131.434 173.804 132.067C173.946 132.093 174.102 132.119 174.258 132.132C181.029 132.925 187.332 130.923 193.088 127.633C193.803 127.217 194.531 126.788 195.233 126.333C199.73 123.342 203.944 119.947 207.825 116.19C208.838 115.241 209.865 114.279 210.931 113.33C211.412 112.901 211.892 112.458 212.386 112.029C220.105 105.242 229.007 99.0265 239.52 99.0265C239.962 99.0265 240.417 99.0395 240.872 99.0655C248.435 99.4296 255.075 103.096 260.65 107.751C262.27 109.096 263.818 110.524 265.29 112.029C265.354 112.094 265.406 112.146 265.471 112.211C265.835 112.575 266.199 112.953 266.537 113.33C270.696 117.686 274.529 122.341 279.051 126.333C279.545 126.788 280.052 127.217 280.572 127.633C282.131 128.928 283.782 130.11 285.51 131.17C285.913 131.417 286.329 131.651 286.745 131.872Z" fill="#324567"/>
</g>
<g opacity="0.1">
<path opacity="0.1" d="M286.745 112.224V152C286.746 152.986 286.655 153.97 286.472 154.939C286.407 155.381 286.303 155.81 286.199 156.239C286.082 156.681 285.939 157.123 285.796 157.553C285.705 157.787 285.627 158.021 285.523 158.242C285.484 158.359 285.432 158.463 285.38 158.58C285.263 158.866 285.133 159.139 284.99 159.412C284.99 159.425 284.99 159.438 284.977 159.438C284.899 159.594 284.821 159.75 284.743 159.893C284.587 160.179 284.418 160.465 284.249 160.738C284.042 161.076 283.834 161.388 283.6 161.701C283.468 161.895 283.325 162.082 283.171 162.26C283.041 162.429 282.898 162.598 282.768 162.767C282.627 162.941 282.475 163.106 282.313 163.261C282.216 163.38 282.112 163.493 282.001 163.599C281.793 163.807 281.585 164.015 281.365 164.21C281.288 164.291 281.206 164.364 281.118 164.431C280.975 164.561 280.819 164.691 280.663 164.821C280.585 164.886 280.494 164.964 280.403 165.029C280.338 165.081 280.273 165.133 280.195 165.198H280.182C279.899 165.422 279.604 165.631 279.298 165.822C279.298 165.824 279.298 165.826 279.297 165.827C279.297 165.829 279.296 165.831 279.295 165.832C279.293 165.833 279.292 165.834 279.29 165.835C279.289 165.835 279.287 165.836 279.285 165.835C279.272 165.835 279.272 165.848 279.259 165.861C279.077 165.991 278.882 166.108 278.688 166.226C278.584 166.291 278.48 166.343 278.376 166.395C278.353 166.416 278.326 166.434 278.298 166.447C278.181 166.512 278.077 166.577 277.96 166.629C277.661 166.785 277.362 166.941 277.05 167.084C276.69 167.254 276.321 167.406 275.946 167.539C275.939 167.547 275.931 167.553 275.923 167.558C275.914 167.562 275.904 167.565 275.894 167.565C275.809 167.601 275.722 167.631 275.634 167.656C275.465 167.721 275.283 167.786 275.114 167.838C274.984 167.877 274.867 167.903 274.737 167.942C274.464 168.033 274.178 168.098 273.892 168.163C273.816 168.186 273.738 168.204 273.658 168.215C273.515 168.254 273.373 168.28 273.23 168.306C273.223 168.305 273.215 168.306 273.209 168.308C273.202 168.31 273.196 168.314 273.191 168.319C273.146 168.316 273.101 168.325 273.061 168.345C273.03 168.343 272.999 168.347 272.97 168.358C272.749 168.397 272.515 168.423 272.281 168.462C272.151 168.475 272.008 168.488 271.865 168.501C271.845 168.512 271.823 168.516 271.8 168.514C271.735 168.514 271.657 168.527 271.592 168.527C271.528 168.538 271.463 168.542 271.397 168.54C271.342 168.551 271.285 168.556 271.228 168.553H271.163C271.098 168.566 271.02 168.566 270.942 168.579C270.683 168.592 270.423 168.592 270.163 168.592H64.2153C60.5568 168.584 57.003 167.369 54.104 165.136C51.205 162.903 49.1227 159.776 48.1792 156.239C48.0753 155.81 47.9713 155.381 47.9064 154.939C47.723 153.97 47.6316 152.986 47.6334 152V128.842C48.0883 128.452 48.5301 128.049 48.972 127.633C49.4268 127.204 49.8686 126.775 50.3105 126.333C54.1813 122.301 57.7067 117.952 60.8495 113.33C60.9535 113.187 61.0575 113.057 61.1485 112.914C61.3563 112.615 61.5642 112.328 61.7852 112.029C64.9369 107.414 68.4617 103.065 72.3243 99.0265C72.7661 98.5844 73.2079 98.1553 73.6628 97.7262C78.497 93.1752 84.0069 89.7815 90.5045 88.9752C99.4582 87.857 107.788 92.0049 115.156 97.7262C115.702 98.1553 116.235 98.5844 116.768 99.0265C119.289 101.081 121.68 103.317 123.941 105.541C124.539 106.139 125.15 106.737 125.76 107.335C127.333 108.909 128.944 110.482 130.569 112.029C131.036 112.472 131.491 112.901 131.959 113.33C138.457 119.35 145.487 124.642 153.843 126.333C154.415 126.45 155 126.554 155.584 126.632C158.741 127.052 161.946 126.951 165.071 126.333C165.591 126.242 166.097 126.125 166.617 125.995C174.44 124.057 181.692 119.181 188.254 113.33C188.722 112.901 189.203 112.472 189.671 112.029C193.023 108.922 196.207 105.593 199.183 102.316C200.171 101.224 201.184 100.119 202.198 99.0265C202.614 98.5974 203.017 98.1683 203.42 97.7262C207.769 92.9837 212.526 88.6327 217.636 84.7233C218.247 84.2682 218.858 83.8392 219.469 83.423C226.343 78.729 233.854 75.7123 242.106 76.1934C248.916 76.5835 255.14 79.3921 260.741 83.423C261.313 83.8392 261.885 84.2682 262.457 84.7233C266.719 88.1495 270.609 92.0153 274.061 96.2569C274.464 96.738 274.867 97.2321 275.27 97.7262C275.478 97.9733 275.673 98.2334 275.881 98.4804L276.309 99.0265C279.753 103.331 283.067 107.804 286.589 112.029L286.745 112.224Z" fill="#324567"/>
</g>
<g opacity="0.1">
<path opacity="0.1" d="M286.745 95.8018V152C286.746 152.986 286.655 153.97 286.472 154.939C286.407 155.381 286.303 155.81 286.199 156.239C286.082 156.681 285.939 157.124 285.796 157.553C285.705 157.787 285.627 158.021 285.523 158.242C285.484 158.359 285.432 158.463 285.38 158.58C285.263 158.866 285.133 159.139 284.99 159.412C284.99 159.425 284.99 159.438 284.977 159.438C284.899 159.594 284.821 159.75 284.743 159.893C284.587 160.179 284.418 160.465 284.249 160.738C284.042 161.076 283.834 161.388 283.6 161.701C283.468 161.895 283.325 162.082 283.171 162.26C283.041 162.429 282.898 162.598 282.768 162.767C282.627 162.941 282.475 163.106 282.313 163.261C282.216 163.38 282.112 163.493 282.001 163.599C281.793 163.807 281.585 164.015 281.365 164.21C281.288 164.291 281.206 164.364 281.118 164.431C280.975 164.561 280.819 164.691 280.663 164.821C280.585 164.886 280.494 164.964 280.403 165.029C280.338 165.081 280.273 165.133 280.195 165.198H280.182C279.899 165.422 279.604 165.631 279.298 165.822C279.298 165.824 279.298 165.826 279.297 165.828C279.297 165.829 279.296 165.831 279.295 165.832C279.293 165.833 279.292 165.834 279.29 165.835C279.289 165.835 279.287 165.836 279.285 165.836C279.272 165.836 279.272 165.849 279.259 165.861C279.077 165.992 278.882 166.109 278.688 166.226C278.584 166.291 278.48 166.343 278.376 166.395C278.353 166.416 278.326 166.434 278.298 166.447C278.181 166.512 278.077 166.577 277.96 166.629C277.661 166.785 277.362 166.941 277.05 167.084C276.69 167.254 276.321 167.406 275.946 167.539C275.939 167.547 275.931 167.553 275.923 167.558C275.914 167.562 275.904 167.565 275.894 167.565C275.809 167.601 275.722 167.631 275.634 167.656C275.465 167.721 275.283 167.786 275.114 167.838C274.984 167.877 274.867 167.903 274.737 167.942C274.464 168.033 274.178 168.098 273.892 168.163C273.816 168.186 273.738 168.204 273.658 168.215C273.515 168.254 273.373 168.28 273.23 168.306C273.223 168.305 273.215 168.306 273.209 168.308C273.202 168.31 273.196 168.314 273.191 168.319C273.146 168.316 273.101 168.325 273.061 168.345C273.03 168.343 272.999 168.347 272.97 168.358C272.749 168.397 272.515 168.423 272.281 168.462C272.151 168.475 272.008 168.488 271.865 168.501C271.845 168.512 271.823 168.516 271.8 168.514C271.735 168.514 271.657 168.527 271.592 168.527C271.528 168.538 271.463 168.542 271.397 168.54C271.39 168.547 271.381 168.552 271.371 168.553H271.163C270.838 168.579 270.501 168.592 270.163 168.592H64.2153C60.5568 168.584 57.003 167.369 54.104 165.136C51.205 162.903 49.1227 159.776 48.1792 156.239C48.0753 155.81 47.9713 155.381 47.9064 154.939C47.723 153.97 47.6316 152.986 47.6334 152V118.427C48.946 116.723 50.2628 115.024 51.584 113.33C51.9218 112.888 52.2597 112.459 52.5976 112.029C54.378 109.741 56.1713 107.478 58.0166 105.268C59.7839 103.148 61.6423 101.055 63.5786 99.0266C63.9944 98.5975 64.4102 98.1553 64.839 97.7263C69.769 92.5871 75.4311 88.2055 81.6418 84.7234C82.4865 84.2553 83.3442 83.8262 84.2149 83.4231C88.8256 81.2205 93.814 79.9186 98.9125 79.5872C105.601 79.253 112.268 80.5703 118.327 83.4231C119.237 83.8132 120.133 84.2553 121.017 84.7234C127.372 88.0001 133.337 92.5901 138.925 97.7263C139.405 98.1424 139.86 98.5844 140.328 99.0266C144.759 103.188 148.957 107.648 152.959 112.029C153.258 112.355 153.557 112.693 153.856 113.018C153.947 113.122 154.051 113.226 154.142 113.33C158.04 117.621 162.199 121.964 166.617 125.995C166.734 126.112 166.864 126.216 166.994 126.333C167.475 126.775 167.956 127.204 168.449 127.633C170.191 129.18 171.984 130.663 173.804 132.067C178.115 135.465 182.813 138.341 187.799 140.636C188.852 141.117 189.918 141.546 190.996 141.936C196.938 144.207 203.35 144.966 209.657 144.147C212.554 143.745 215.394 143.003 218.117 141.936C219.157 141.546 220.17 141.104 221.171 140.636C227.759 137.515 233.711 132.795 239.351 127.633C239.819 127.204 240.287 126.775 240.755 126.333C243.964 123.316 247.083 120.182 250.163 117.153C251.463 115.878 252.788 114.591 254.153 113.33C254.621 112.901 255.101 112.472 255.582 112.029C257.22 110.56 258.909 109.117 260.65 107.751C264.907 104.266 269.588 101.334 274.581 99.0266C275.01 98.8315 275.452 98.6494 275.881 98.4804C276.543 98.2074 277.206 97.9603 277.869 97.7263C280.731 96.7002 283.715 96.0532 286.745 95.8018Z" fill="#324567"/>
</g>
<path d="M98.9645 87.324C101.118 87.324 102.863 85.5775 102.863 83.4231C102.863 81.2687 101.118 79.5222 98.9645 79.5222C96.8114 79.5222 95.0659 81.2687 95.0659 83.4231C95.0659 85.5775 96.8114 87.324 98.9645 87.324Z" fill="white"/>
<path d="M158.742 130.233C160.895 130.233 162.641 128.487 162.641 126.333C162.641 124.178 160.895 122.432 158.742 122.432C156.589 122.432 154.844 124.178 154.844 126.333C154.844 128.487 156.589 130.233 158.742 130.233Z" fill="white"/>
<path d="M239.312 101.627C241.465 101.627 243.211 99.8807 243.211 97.7263C243.211 95.5719 241.465 93.8254 239.312 93.8254C237.159 93.8254 235.414 95.5719 235.414 97.7263C235.414 99.8807 237.159 101.627 239.312 101.627Z" fill="white"/>
<path d="M416.644 131.009H324.718C324.282 131.008 323.85 131.094 323.447 131.26C323.044 131.427 322.678 131.671 322.369 131.979C322.061 132.288 321.816 132.654 321.649 133.057C321.482 133.46 321.396 133.892 321.396 134.328C321.396 134.764 321.482 135.196 321.649 135.599C321.816 136.002 322.061 136.368 322.369 136.677C322.678 136.985 323.044 137.229 323.447 137.396C323.85 137.562 324.282 137.648 324.718 137.647H416.644C417.524 137.647 418.368 137.297 418.99 136.675C419.612 136.052 419.961 135.208 419.961 134.328C419.961 133.448 419.612 132.604 418.99 131.981C418.368 131.359 417.524 131.009 416.644 131.009Z" fill="#E6E6E6"/>
<path d="M416.644 181.267H324.718C323.838 181.267 322.994 181.617 322.372 182.239C321.75 182.861 321.401 183.706 321.401 184.586C321.401 185.466 321.75 186.31 322.372 186.933C322.994 187.555 323.838 187.905 324.718 187.905H416.644C417.524 187.905 418.368 187.555 418.99 186.933C419.612 186.31 419.961 185.466 419.961 184.586C419.961 183.706 419.612 182.861 418.99 182.239C418.368 181.617 417.524 181.267 416.644 181.267Z" fill="#E6E6E6"/>
<path d="M416.644 231.525H324.718C323.838 231.525 322.994 231.874 322.372 232.497C321.75 233.119 321.401 233.963 321.401 234.844C321.401 235.724 321.75 236.568 322.372 237.19C322.994 237.813 323.838 238.162 324.718 238.162H416.644C417.524 238.162 418.368 237.813 418.99 237.19C419.612 236.568 419.961 235.724 419.961 234.844C419.961 233.963 419.612 233.119 418.99 232.497C418.368 231.874 417.524 231.525 416.644 231.525Z" fill="#E6E6E6"/>
<path d="M472.345 142.865C476.92 142.865 480.629 139.154 480.629 134.576C480.629 129.999 476.92 126.288 472.345 126.288C467.771 126.288 464.062 129.999 464.062 134.576C464.062 139.154 467.771 142.865 472.345 142.865Z" fill="#F2F2F2"/>
<path d="M471.215 138.89C471.072 138.89 470.931 138.857 470.803 138.793C470.675 138.729 470.564 138.636 470.478 138.521L468.218 135.506C468.146 135.409 468.093 135.299 468.062 135.182C468.032 135.064 468.026 134.942 468.043 134.822C468.06 134.702 468.1 134.587 468.162 134.483C468.224 134.378 468.305 134.287 468.402 134.215C468.499 134.142 468.609 134.089 468.726 134.059C468.844 134.029 468.966 134.022 469.086 134.04C469.206 134.057 469.321 134.097 469.425 134.159C469.529 134.221 469.62 134.303 469.693 134.4L471.171 136.372L474.968 130.673C475.104 130.47 475.315 130.328 475.554 130.28C475.794 130.232 476.043 130.282 476.246 130.417C476.45 130.553 476.591 130.764 476.639 131.004C476.687 131.243 476.637 131.492 476.502 131.696L471.982 138.479C471.9 138.602 471.79 138.703 471.661 138.775C471.532 138.846 471.388 138.886 471.241 138.89L471.215 138.89Z" fill="white"/>
<path d="M472.345 193.122C476.92 193.122 480.629 189.412 480.629 184.834C480.629 180.256 476.92 176.546 472.345 176.546C467.771 176.546 464.062 180.256 464.062 184.834C464.062 189.412 467.771 193.122 472.345 193.122Z" fill="#F2F2F2"/>
<path d="M471.215 189.148C471.072 189.148 470.931 189.114 470.803 189.05C470.675 188.986 470.564 188.893 470.478 188.779L468.218 185.764C468.146 185.667 468.093 185.557 468.062 185.44C468.032 185.322 468.026 185.2 468.043 185.08C468.06 184.96 468.1 184.845 468.162 184.74C468.224 184.636 468.305 184.545 468.402 184.472C468.499 184.4 468.609 184.347 468.726 184.317C468.844 184.287 468.966 184.28 469.086 184.297C469.206 184.315 469.321 184.355 469.425 184.417C469.529 184.479 469.62 184.561 469.693 184.658L471.171 186.63L474.968 180.931C475.035 180.83 475.122 180.744 475.222 180.676C475.323 180.609 475.436 180.562 475.554 180.538C475.673 180.514 475.795 180.514 475.914 180.538C476.033 180.561 476.145 180.608 476.246 180.675C476.347 180.742 476.433 180.829 476.501 180.929C476.568 181.03 476.615 181.143 476.639 181.261C476.662 181.38 476.662 181.502 476.639 181.621C476.615 181.74 476.569 181.853 476.502 181.954L471.982 188.737C471.9 188.86 471.79 188.961 471.661 189.033C471.532 189.104 471.388 189.143 471.241 189.148L471.215 189.148Z" fill="white"/>
<path d="M472.345 243.38C476.92 243.38 480.629 239.669 480.629 235.092C480.629 230.514 476.92 226.804 472.345 226.804C467.771 226.804 464.062 230.514 464.062 235.092C464.062 239.669 467.771 243.38 472.345 243.38Z" fill="#F2F2F2"/>
<path d="M416.644 80.7512H324.718C323.838 80.7512 322.994 81.1009 322.372 81.7233C321.75 82.3457 321.401 83.1899 321.401 84.0701C321.401 84.9504 321.75 85.7945 322.372 86.417C322.994 87.0394 323.838 87.3891 324.718 87.3891H416.644C417.524 87.3891 418.368 87.0394 418.99 86.417C419.612 85.7945 419.961 84.9504 419.961 84.0701C419.961 83.1899 419.612 82.3457 418.99 81.7233C418.368 81.1009 417.524 80.7512 416.644 80.7512Z" fill="#E6E6E6"/>
<path d="M472.345 92.6068C476.92 92.6068 480.629 88.8959 480.629 84.3184C480.629 79.7409 476.92 76.03 472.345 76.03C467.771 76.03 464.062 79.7409 464.062 84.3184C464.062 88.8959 467.771 92.6068 472.345 92.6068Z" fill="#2680FE"/>
<path d="M471.215 88.6322C471.072 88.6322 470.931 88.5989 470.803 88.5348C470.675 88.4708 470.564 88.3779 470.478 88.2633L468.218 85.2484C468.146 85.1515 468.093 85.0413 468.062 84.9239C468.032 84.8066 468.026 84.6844 468.043 84.5644C468.06 84.4445 468.1 84.3291 468.162 84.2248C468.224 84.1205 468.305 84.0294 468.402 83.9567C468.499 83.884 468.609 83.8311 468.726 83.8011C468.844 83.7711 468.966 83.7645 469.086 83.7817C469.206 83.7989 469.321 83.8396 469.425 83.9014C469.529 83.9633 469.62 84.045 469.693 84.1421L471.171 86.1144L474.968 80.4152C475.035 80.3144 475.122 80.2279 475.222 80.1605C475.323 80.0932 475.436 80.0463 475.554 80.0225C475.673 79.9988 475.795 79.9987 475.914 80.0222C476.033 80.0457 476.145 80.0923 476.246 80.1595C476.347 80.2266 476.433 80.313 476.501 80.4136C476.568 80.5142 476.615 80.6271 476.639 80.7458C476.662 80.8645 476.662 80.9868 476.639 81.1055C476.615 81.2243 476.569 81.3373 476.502 81.438L471.982 88.2216C471.9 88.3443 471.79 88.4456 471.661 88.517C471.532 88.5884 471.388 88.6278 471.241 88.6319L471.215 88.6322Z" fill="white"/>
<path d="M444.862 92.6068C449.437 92.6068 453.145 88.8959 453.145 84.3184C453.145 79.7409 449.437 76.03 444.862 76.03C440.287 76.03 436.579 79.7409 436.579 84.3184C436.579 88.8959 440.287 92.6068 444.862 92.6068Z" fill="#F2F2F2"/>
<path d="M444.862 142.865C449.437 142.865 453.145 139.154 453.145 134.576C453.145 129.999 449.437 126.288 444.862 126.288C440.287 126.288 436.579 129.999 436.579 134.576C436.579 139.154 440.287 142.865 444.862 142.865Z" fill="#F2F2F2"/>
<path d="M444.862 193.122C449.437 193.122 453.145 189.412 453.145 184.834C453.145 180.256 449.437 176.546 444.862 176.546C440.287 176.546 436.579 180.256 436.579 184.834C436.579 189.412 440.287 193.122 444.862 193.122Z" fill="#F2F2F2"/>
<path d="M444.862 243.38C449.437 243.38 453.145 239.669 453.145 235.092C453.145 230.514 449.437 226.804 444.862 226.804C440.287 226.804 436.579 230.514 436.579 235.092C436.579 239.669 440.287 243.38 444.862 243.38Z" fill="#F2F2F2"/>
<path d="M471.215 239.406C471.072 239.406 470.931 239.372 470.803 239.308C470.675 239.244 470.564 239.151 470.478 239.037L468.218 236.022C468.146 235.925 468.093 235.815 468.063 235.697C468.033 235.58 468.026 235.458 468.043 235.338C468.061 235.218 468.101 235.103 468.163 234.999C468.224 234.895 468.306 234.804 468.403 234.731C468.5 234.658 468.61 234.606 468.727 234.576C468.844 234.546 468.966 234.539 469.086 234.556C469.206 234.573 469.321 234.614 469.425 234.675C469.529 234.737 469.62 234.819 469.693 234.916L471.171 236.888L474.968 231.189C475.104 230.985 475.315 230.844 475.554 230.796C475.794 230.748 476.043 230.797 476.246 230.933C476.45 231.069 476.591 231.279 476.639 231.519C476.687 231.759 476.637 232.008 476.502 232.211L471.982 238.995C471.9 239.118 471.79 239.219 471.661 239.29C471.532 239.362 471.388 239.401 471.241 239.405L471.215 239.406Z" fill="white"/>
<path d="M459.272 396.997C459.275 397.045 459.266 397.092 459.248 397.135C459.229 397.179 459.2 397.218 459.164 397.248C459.108 397.291 459.041 397.318 458.971 397.327C458.9 397.342 458.826 397.329 458.764 397.29C458.703 397.251 458.659 397.19 458.641 397.119C457.653 393.794 455.232 391.243 452.94 388.741C450.878 386.498 448.851 384.133 447.812 381.217C447.362 380.058 447.163 378.817 447.227 377.575C447.291 376.334 447.618 375.12 448.185 374.014C448.541 373.353 448.956 372.724 449.424 372.137C450.448 370.832 451.665 369.671 452.761 368.439C452.876 368.31 452.99 368.173 453.098 368.044C453.248 367.88 453.384 367.708 453.513 367.536C454.879 365.845 455.829 363.856 456.285 361.731C456.774 359.138 456.849 356.485 456.507 353.869C456.364 352.479 456.166 351.098 455.913 349.727C455.898 349.662 455.891 349.605 455.877 349.548C454.771 343.666 452.761 337.992 449.918 332.728C449.81 332.534 449.71 332.341 449.603 332.154C449.144 331.323 448.672 330.506 448.17 329.703C448.342 329.581 448.528 329.467 448.715 329.359C450.357 332.02 451.787 334.807 452.99 337.694C454.547 341.397 455.715 345.252 456.478 349.196C456.529 349.411 456.564 349.633 456.6 349.848C456.901 351.504 457.123 353.181 457.259 354.851C457.528 357.471 457.349 360.117 456.729 362.677C456.167 364.707 455.173 366.592 453.814 368.202C453.571 368.51 453.313 368.811 453.041 369.105C451.952 370.295 450.749 371.449 449.767 372.746C449.266 373.398 448.841 374.104 448.5 374.853C447.347 377.433 447.891 380.256 449.166 382.679C451.472 387.086 455.87 390.089 458.212 394.41C458.644 395.206 458.995 396.044 459.257 396.911C459.266 396.939 459.271 396.968 459.272 396.997Z" fill="white"/>
<path d="M456.304 349.924C458.315 349.419 460.081 348.214 461.287 346.526C462.492 344.838 463.059 342.777 462.885 340.709C462.849 340.291 462.198 340.328 462.234 340.747C462.399 342.672 461.871 344.592 460.745 346.162C459.62 347.731 457.97 348.847 456.095 349.306C455.687 349.407 455.899 350.024 456.304 349.924Z" fill="white"/>
<path d="M453.691 367.642C450.035 365.497 447.321 362.051 446.091 357.993C445.969 357.59 445.352 357.8 445.473 358.202C446.761 362.423 449.593 366.003 453.403 368.227C453.766 368.439 454.053 367.853 453.691 367.642Z" fill="white"/>
<path d="M449.997 332.692C449.968 332.706 449.947 332.713 449.918 332.728C448.628 333.316 447.161 333.386 445.821 332.921C445.88 332.71 445.954 332.504 446.043 332.305C447.206 332.704 448.477 332.65 449.603 332.154C449.667 332.133 449.725 332.104 449.789 332.075C449.871 332.047 449.96 332.053 450.038 332.09C450.116 332.128 450.176 332.194 450.204 332.276C450.228 332.359 450.22 332.447 450.181 332.524C450.143 332.601 450.077 332.661 449.997 332.692Z" fill="white"/>
<path d="M414.295 222.876C414.921 222.121 415.375 221.238 415.623 220.289C415.872 219.341 415.909 218.349 415.733 217.384C415.557 216.419 415.172 215.504 414.604 214.705C414.036 213.905 413.3 213.239 412.448 212.755L416.773 189.307L405.37 194.138L403.011 215.663C402.293 217.15 402.144 218.849 402.594 220.438C403.044 222.027 404.06 223.396 405.451 224.285C406.842 225.174 408.511 225.521 410.141 225.262C411.771 225.002 413.249 224.153 414.295 222.876Z" fill="#FFB6B6"/>
<path d="M421.254 153.477L417.63 141.287L392.075 101.391C390.654 99.7294 388.955 98.3278 387.054 97.2484C383.277 95.0882 378.874 94.2885 374.579 94.9828C370.285 95.6771 366.357 97.8234 363.452 101.064C360.547 104.304 358.84 108.443 358.615 112.79C358.39 117.138 359.66 121.431 362.215 124.954C362.742 125.691 363.324 126.385 363.956 127.033L397.053 161.189L398.937 163.138L401.916 170.677L403.091 205.055L404.144 205.306L413.419 207.492L414.715 207.8L416.885 196.57L418.246 191.202C419.404 186.624 419.988 181.921 419.987 177.199C419.987 175.744 419.936 174.282 419.822 172.827L421.254 153.477Z" fill="#3F3D56"/>
<path d="M386.123 390.539H377.249L373.028 356.29L386.125 356.291L386.123 390.539Z" fill="#FFB6B6"/>
<path d="M385.887 387.638L376.418 383.789L376.139 383.675L370.911 387.638C368.041 387.638 365.283 388.746 363.21 390.731C361.138 392.717 359.912 395.426 359.788 398.295C359.773 398.452 359.773 398.617 359.773 398.782V399.147H388.387V387.638H385.887Z" fill="#2F2E41"/>
<path d="M369.224 372.827L361.575 377.33L340.578 349.955L351.865 343.31L369.224 372.827Z" fill="#FFB6B6"/>
<path d="M374.506 377.339L373.468 375.569L369.707 369.177L367.752 370.331L367.551 370.445L357.438 371.936L357.137 371.979L354.645 378.049C353.384 378.791 352.281 379.774 351.4 380.942C350.519 382.111 349.876 383.441 349.509 384.858C349.142 386.275 349.058 387.751 349.26 389.2C349.463 390.65 349.949 392.045 350.691 393.307L350.878 393.615L375.537 379.095L374.506 377.339Z" fill="#2F2E41"/>
<path d="M397.363 181.161C401.523 193.717 401.083 207.345 396.363 221.973L395.131 272.257L391.173 303.975C393.56 310.19 394.784 316.792 394.785 323.45C394.768 340.902 393.595 365.695 387.649 377.342H373.578L370.402 325.475L366.612 299.397L366.145 271.452L365.737 247.08L350.438 269.466L335.571 291.218L350.348 316.158L363.24 356.291L349.631 367.758L334.194 338.473L326.712 329.775L306.288 285.535L308.124 279.376C311.904 266.69 317.393 254.58 324.441 243.378L344.756 196.2L397.363 181.161Z" fill="#2F2E41"/>
<path d="M399.166 176.969L396.845 172.325L397.053 161.189L397.748 123.535C397.831 118.658 396.927 113.815 395.089 109.297C393.251 104.779 390.518 100.681 387.054 97.2484C384.999 95.199 382.699 93.4107 380.207 91.9236L375.222 88.9423L372.701 82.5354L349.452 83.1016L349.402 89.315L349.381 91.5008L341.051 104.788L341.058 104.845L341.23 129.025L341.574 177.156L343.873 184.616L340.399 193.302L342.247 198.835L343.722 198.598L393.415 190.65C395.673 189.925 397.59 188.402 398.808 186.365C399.053 185.966 399.266 185.55 399.445 185.118C399.987 183.819 400.243 182.419 400.195 181.013C400.146 179.607 399.795 178.227 399.166 176.969Z" fill="#3F3D56"/>
<path d="M358.945 74.5659C370.613 74.5659 380.071 65.102 380.071 53.4276C380.071 41.7532 370.613 32.2892 358.945 32.2892C347.278 32.2892 337.819 41.7532 337.819 53.4276C337.819 65.102 347.278 74.5659 358.945 74.5659Z" fill="#FFB6B6"/>
<path d="M372.087 70.9431C374.318 69.3723 376.577 66.3819 378.082 64.1432C380.077 61.2003 381.431 57.8709 382.058 54.3707C382.684 50.8705 382.569 47.2777 381.719 43.825C381.444 42.4437 380.797 41.1635 379.849 40.1227C379.364 39.6146 378.731 39.273 378.041 39.1468C377.35 39.0206 376.637 39.1163 376.004 39.4202C376.323 38.5277 376.456 37.5792 376.395 36.6333C376.333 35.6874 376.079 34.7641 375.647 33.9205C374.77 32.2362 373.513 30.7795 371.975 29.666C369.034 27.4638 365.552 26.0995 361.898 25.7179C358.244 25.3362 354.555 25.9515 351.223 27.4984C349.912 28.1284 352.014 23.3735 350.639 23.8482C349.274 24.3988 347.748 24.3931 346.388 23.8323C345.08 23.1961 340.828 27.1429 341.307 25.7689C340.328 26.2304 339.481 26.9324 338.846 27.8096C338.21 28.6867 337.807 29.7105 337.673 30.7856C337.54 31.8607 337.681 32.9521 338.082 33.9582C338.484 34.9643 339.133 35.8523 339.97 36.5395C341.073 37.4452 342.442 37.9566 343.646 38.7219C345.758 40.1652 347.269 42.3322 347.893 44.8137C348.517 47.2952 348.211 49.9196 347.034 52.1912C348.279 51.3664 349.649 50.7481 351.09 50.3603C351.814 50.173 352.571 50.1613 353.3 50.326C354.029 50.4908 354.708 50.8273 355.281 51.3076C355.761 51.8426 356.127 52.4701 356.356 53.1517C356.585 53.8334 356.673 54.5546 356.613 55.2713C356.586 56.7063 356.264 58.1241 356.246 59.5593C356.192 63.7703 354.049 71.8047 357.342 73.997C359.941 75.7271 369.04 73.0879 372.087 70.9431Z" fill="#2F2E41"/>
<path d="M241.584 104.843C242.084 105.687 242.762 106.411 243.572 106.964C244.382 107.517 245.303 107.885 246.27 108.044C247.238 108.202 248.228 108.146 249.171 107.88C250.115 107.614 250.989 107.144 251.731 106.503L272.349 118.459L271.634 106.089L252.165 96.6324C251.007 95.4557 249.457 94.745 247.81 94.6349C246.164 94.5248 244.534 95.023 243.229 96.0351C241.925 97.0472 241.037 98.5028 240.734 100.126C240.431 101.749 240.733 103.428 241.584 104.843Z" fill="#FFB6B6"/>
<path d="M374.728 101.14C373.928 98.6384 372.62 96.3295 370.886 94.3583C369.151 92.3872 367.028 90.7963 364.649 89.6858C362.271 88.5752 359.688 87.969 357.064 87.9052C354.441 87.8413 351.832 88.3213 349.402 89.3149C349.173 89.4081 348.944 89.5084 348.715 89.6088L302.976 110.442L285.171 108.328L262.122 100.273L261.535 101.183L256.357 109.188L255.633 110.306L280.357 124.933L282.979 125.477C285.262 125.95 287.429 126.869 289.356 128.181C291.283 129.493 292.932 131.173 294.209 133.124L303.793 136.277L341.23 129.025L362.215 124.954L363.404 124.725C367.001 123.34 370.093 120.898 372.276 117.721C374.458 114.543 375.628 110.779 375.63 106.923C375.632 104.96 375.327 103.009 374.728 101.14Z" fill="#3F3D56"/>
<path d="M481.158 400H231.919C231.692 400 231.475 399.91 231.315 399.75C231.156 399.59 231.066 399.373 231.066 399.147C231.066 398.92 231.156 398.703 231.315 398.543C231.475 398.383 231.692 398.293 231.919 398.293H481.158C481.384 398.293 481.601 398.383 481.761 398.543C481.921 398.703 482.011 398.92 482.011 399.147C482.011 399.373 481.921 399.59 481.761 399.75C481.601 399.91 481.384 400 481.158 400Z" fill="#CCCCCC"/>
<path d="M212.9 200.618H61.5267C60.6478 200.619 59.8054 200.969 59.1844 201.592C58.5634 202.214 58.2146 203.057 58.2146 203.937C58.2146 204.816 58.5634 205.66 59.1844 206.282C59.8054 206.904 60.6478 207.254 61.5267 207.256H212.9C213.336 207.256 213.768 207.171 214.171 207.005C214.574 206.838 214.94 206.594 215.249 206.285C215.557 205.977 215.802 205.611 215.969 205.208C216.136 204.805 216.222 204.373 216.222 203.937C216.222 203.501 216.136 203.069 215.969 202.666C215.802 202.263 215.557 201.897 215.249 201.588C214.94 201.28 214.574 201.036 214.171 200.869C213.768 200.703 213.336 200.617 212.9 200.618H212.9Z" fill="#E6E6E6"/>
<path d="M268.601 212.473C273.176 212.473 276.885 208.763 276.885 204.185C276.885 199.608 273.176 195.897 268.601 195.897C264.026 195.897 260.318 199.608 260.318 204.185C260.318 208.763 264.026 212.473 268.601 212.473Z" fill="#2680FE"/>
<path d="M267.471 208.499C267.328 208.499 267.187 208.465 267.059 208.401C266.931 208.337 266.82 208.244 266.734 208.13L264.474 205.115C264.402 205.018 264.349 204.908 264.319 204.79C264.289 204.673 264.282 204.551 264.299 204.431C264.316 204.311 264.357 204.196 264.419 204.092C264.48 203.988 264.562 203.897 264.659 203.824C264.755 203.751 264.866 203.699 264.983 203.669C265.1 203.639 265.222 203.632 265.342 203.649C265.462 203.666 265.577 203.707 265.681 203.768C265.785 203.83 265.876 203.912 265.949 204.009L267.427 205.981L271.224 200.282C271.291 200.181 271.378 200.094 271.478 200.027C271.579 199.96 271.692 199.913 271.81 199.889C271.929 199.865 272.051 199.865 272.17 199.889C272.289 199.912 272.401 199.959 272.502 200.026C272.603 200.093 272.689 200.179 272.757 200.28C272.824 200.381 272.871 200.494 272.895 200.612C272.918 200.731 272.918 200.853 272.895 200.972C272.871 201.091 272.825 201.204 272.758 201.305L268.238 208.088C268.156 208.211 268.046 208.312 267.917 208.383C267.788 208.455 267.644 208.494 267.497 208.498L267.471 208.499Z" fill="white"/>
<path d="M241.118 212.473C245.693 212.473 249.402 208.763 249.402 204.185C249.402 199.608 245.693 195.897 241.118 195.897C236.543 195.897 232.835 199.608 232.835 204.185C232.835 208.763 236.543 212.473 241.118 212.473Z" fill="#F2F2F2"/>
<path d="M212.184 240.751H60.8104C59.9315 240.752 59.0891 241.102 58.4681 241.724C57.8471 242.347 57.4983 243.19 57.4983 244.07C57.4983 244.949 57.8471 245.792 58.4681 246.415C59.0891 247.037 59.9315 247.387 60.8104 247.388H212.184C213.064 247.388 213.907 247.039 214.529 246.416C215.152 245.794 215.501 244.95 215.501 244.07C215.501 243.189 215.152 242.345 214.529 241.723C213.907 241.1 213.064 240.751 212.184 240.751H212.184Z" fill="#E6E6E6"/>
<path d="M267.885 252.606C272.46 252.606 276.168 248.895 276.168 244.318C276.168 239.74 272.46 236.029 267.885 236.029C263.31 236.029 259.602 239.74 259.602 244.318C259.602 248.895 263.31 252.606 267.885 252.606Z" fill="#F2F2F2"/>
<path d="M266.755 248.631C266.612 248.631 266.471 248.598 266.343 248.534C266.215 248.47 266.104 248.377 266.018 248.263L263.758 245.248C263.611 245.052 263.549 244.806 263.583 244.564C263.618 244.322 263.747 244.104 263.942 243.957C264.138 243.81 264.384 243.747 264.626 243.782C264.868 243.816 265.086 243.946 265.232 244.141L266.711 246.114L270.508 240.414C270.575 240.314 270.662 240.227 270.762 240.16C270.863 240.092 270.975 240.046 271.094 240.022C271.213 239.998 271.335 239.998 271.454 240.021C271.572 240.045 271.685 240.092 271.786 240.159C271.887 240.226 271.973 240.312 272.04 240.413C272.108 240.513 272.155 240.626 272.178 240.745C272.202 240.864 272.202 240.986 272.179 241.105C272.155 241.224 272.109 241.337 272.041 241.437L267.522 248.221C267.44 248.344 267.33 248.445 267.201 248.516C267.072 248.588 266.928 248.627 266.781 248.631L266.755 248.631Z" fill="white"/>
<path d="M240.402 252.606C244.977 252.606 248.685 248.895 248.685 244.318C248.685 239.74 244.977 236.029 240.402 236.029C235.827 236.029 232.118 239.74 232.118 244.318C232.118 248.895 235.827 252.606 240.402 252.606Z" fill="#F2F2F2"/>
</svg>
