<svg xmlns="http://www.w3.org/2000/svg" viewBox="-3 5 512 512"><path d="M 23.099609 21.099609 C 17.599609 21.099609 13.099609 25.599609 13.099609 31.099609 L 13.099609 491 C 13.099609 496.5 17.599609 501 23.099609 501 L 482.90039 501 C 488.40039 501 492.90039 496.5 492.90039 491 L 492.90039 31.099609 C 492.90039 25.499609 488.40039 21.099609 482.90039 21.099609 L 23.099609 21.099609 z M 33.099609 41.099609 L 472.90039 41.099609 L 472.90039 101.09961 L 33.099609 101.09961 L 33.099609 41.099609 z M 63.099609 61.099609 C 57.599609 61.099609 53.099609 65.599609 53.099609 71.099609 C 53.099609 76.599609 57.499609 81.099609 63.099609 81.099609 L 83.099609 81.099609 C 88.599609 81.099609 93.099609 76.599609 93.099609 71.099609 C 93.099609 65.599609 88.599609 61.099609 83.099609 61.099609 L 63.099609 61.099609 z M 153 61.099609 C 147.5 61.099609 143 65.599609 143 71.099609 C 143 76.599609 147.5 81.099609 153 81.099609 L 173 81.099609 C 178.5 81.099609 183 76.599609 183 71.099609 C 183 65.599609 178.5 61.099609 173 61.099609 L 153 61.099609 z M 263 61.099609 C 257.5 61.099609 253 65.599609 253 71.099609 C 253 76.599609 257.5 81.099609 263 81.099609 L 442.90039 81.099609 C 448.40039 81.099609 452.90039 76.599609 452.90039 71.099609 C 452.90039 65.599609 448.40039 61.099609 442.90039 61.099609 L 263 61.099609 z M 33.099609 121 L 472.90039 121 L 472.90039 480.90039 L 33.099609 480.90039 L 33.099609 121 z M 63 141 C 57.5 141 53 145.5 53 151 L 53 271 C 53 276.5 57.5 281 63 281 L 183 281 C 188.5 281 193 276.5 193 271 L 193 151 C 193 145.5 188.5 141 183 141 L 63 141 z M 73 161 L 173 161 L 173 181 L 73 181 L 73 161 z M 318.40039 181 C 312.90039 181 308.40039 185.5 308.40039 191 L 308.40039 213.69922 C 301.60039 215.59922 295.00078 218.30078 288.80078 221.80078 L 272.69922 205.69922 C 268.79922 201.79922 262.49961 201.79922 258.59961 205.69922 L 237.90039 226.40039 C 234.00039 230.30039 234.00039 236.6 237.90039 240.5 L 254 256.59961 C 250.5 262.79961 247.80039 269.39922 245.90039 276.19922 L 223 276.19922 C 217.5 276.19922 213 280.69922 213 286.19922 L 213 315.5 C 213 321 217.5 325.5 223 325.5 L 245.69922 325.5 C 247.59922 332.3 250.30078 338.89961 253.80078 345.09961 L 237.69922 361.19922 C 233.79922 365.09922 233.79922 371.40078 237.69922 375.30078 L 258.40039 396 C 262.30039 399.9 268.6 399.9 272.5 396 L 288.59961 379.90039 C 294.79961 383.40039 301.39922 386.1 308.19922 388 L 308.19922 411 C 308.19922 416.5 312.69922 421 318.19922 421 L 347.5 421 C 353 421 357.5 416.5 357.5 411 L 357.5 388.30078 C 364.3 386.40078 370.89961 383.69922 377.09961 380.19922 L 393.19922 396.30078 C 397.09922 400.20078 403.40078 400.20078 407.30078 396.30078 L 428 375.59961 C 431.9 371.69961 431.9 365.4 428 361.5 L 411.90039 345.40039 C 415.40039 339.20039 418.1 332.60078 420 325.80078 L 442.69922 325.80078 C 448.19922 325.80078 452.69922 321.30078 452.69922 315.80078 L 452.69922 286.5 C 452.89922 280.8 448.50039 276.30078 442.90039 276.30078 L 420.19922 276.30078 C 418.29922 269.50078 415.59961 262.89922 412.09961 256.69922 L 428.19922 240.59961 C 432.09922 236.69961 432.09922 230.4 428.19922 226.5 L 407.5 205.80078 C 403.6 201.90078 397.30039 201.90078 393.40039 205.80078 L 377.30078 221.90039 C 371.10078 218.40039 364.49922 215.70078 357.69922 213.80078 L 357.69922 191 C 357.69922 185.5 353.19922 181 347.69922 181 L 318.40039 181 z M 73.099609 201 L 173.09961 201 L 173.09961 261 L 73.099609 261 L 73.099609 201 z M 328.30078 201 L 337.59961 201 L 337.59961 221.69922 C 337.59961 226.49922 341.00078 230.7 345.80078 231.5 C 355.60078 233.3 364.7 237.10078 373 242.80078 C 377 245.50078 382.29922 245.09961 385.69922 241.59961 L 400.30078 227 L 406.90039 233.59961 L 392.30078 248.19922 C 388.90078 251.59922 388.39961 257.00039 391.09961 260.90039 C 396.79961 269.10039 400.60039 278.29961 402.40039 288.09961 C 403.30039 292.79961 407.39922 296.30078 412.19922 296.30078 L 432.90039 296.30078 L 432.90039 305.69922 L 412.19922 305.69922 C 407.39922 305.69922 403.20039 309.10039 402.40039 313.90039 C 400.60039 323.70039 396.79961 332.79961 391.09961 341.09961 C 388.39961 345.09961 388.90078 350.40078 392.30078 353.80078 L 406.90039 368.40039 L 400.30078 375 L 385.69922 360.40039 C 382.29922 357.00039 376.9 356.49922 373 359.19922 C 364.8 364.89922 355.60078 368.7 345.80078 370.5 C 341.10078 371.4 337.59961 375.50078 337.59961 380.30078 L 337.59961 401 L 328.30078 401 L 328.30078 380.30078 C 328.30078 375.50078 324.89961 371.3 320.09961 370.5 C 310.29961 368.7 301.20039 364.89922 292.90039 359.19922 C 288.90039 356.49922 283.59922 356.90039 280.19922 360.40039 L 265.59961 375 L 259 368.40039 L 273.59961 353.80078 C 276.99961 350.40078 277.50078 344.99961 274.80078 341.09961 C 269.10078 332.89961 265.3 323.70039 263.5 313.90039 C 262.6 309.20039 258.49922 305.69922 253.69922 305.69922 L 233 305.69922 L 233 296.40039 L 253.69922 296.40039 C 258.49922 296.40039 262.7 292.99922 263.5 288.19922 C 265.3 278.39922 269.10078 269.3 274.80078 261 C 277.50078 257 276.99961 251.70078 273.59961 248.30078 L 259 233.59961 L 265.59961 227 L 280.19922 241.59961 C 283.59922 244.99961 289.00039 245.50078 292.90039 242.80078 C 301.10039 237.10078 310.29961 233.3 320.09961 231.5 C 324.79961 230.6 328.30078 226.49922 328.30078 221.69922 L 328.30078 201 z M 103.05078 210.97461 C 100.50078 210.97461 97.95 211.95039 96 213.90039 L 86 223.90039 C 82.1 227.80039 82.1 234.1 86 238 L 96 248 C 98 250 100.49961 250.90039 103.09961 250.90039 C 111.89961 250.90039 116.49922 240.10078 110.19922 233.80078 L 107.30078 230.90039 L 110.19922 228 C 113.99922 224.2 113.99961 217.80039 110.09961 213.90039 C 108.14961 211.95039 105.60078 210.97461 103.05078 210.97461 z M 143.05078 210.97461 C 140.50078 210.97461 137.95 211.95039 136 213.90039 C 132.1 217.80039 132.1 224.1 136 228 L 138.90039 230.90039 L 136 233.80078 C 129.7 240.10078 134.19961 250.90039 143.09961 250.90039 C 145.69961 250.90039 148.19922 249.9 150.19922 248 L 160.19922 238 C 164.09922 234.1 164.09922 227.80039 160.19922 223.90039 L 150.09961 213.90039 C 148.14961 211.95039 145.60078 210.97461 143.05078 210.97461 z M 333 247 C 303.2 247 279 271.2 279 301 C 279 330.8 303.2 355 333 355 C 362.8 355 387 330.8 387 301 C 386.9 271.2 362.7 247 333 247 z M 333 267 C 351.7 267 367 282.2 367 301 C 367 319.8 351.7 335 333 335 C 314.3 335 299 319.8 299 301 C 299 282.2 314.3 267 333 267 z M 63 321 C 57.5 321 53 325.5 53 331 L 53 451 C 53 456.5 57.5 461 63 461 L 183 461 C 188.5 461 193 456.5 193 451 L 193 331 C 193 325.5 188.5 321 183 321 L 63 321 z M 73 341 L 173 341 L 173 361 L 73 361 L 73 341 z M 73.099609 380.90039 L 173.09961 380.90039 L 173.09961 440.90039 L 73.099609 440.90039 L 73.099609 380.90039 z M 103.05078 390.97461 C 100.50078 390.97461 97.95 391.95039 96 393.90039 L 86 403.90039 C 82.1 407.80039 82.1 414.1 86 418 L 96 428 C 99.9 431.9 106.19961 431.9 110.09961 428 C 113.99961 424.1 113.99961 417.80039 110.09961 413.90039 L 107.19922 411 L 110.09961 408.09961 C 113.99961 404.09961 113.99961 397.80039 110.09961 393.90039 C 108.14961 391.95039 105.60078 390.97461 103.05078 390.97461 z M 143.05078 390.97461 C 140.50078 390.97461 137.95 391.95039 136 393.90039 C 132.1 397.80039 132.1 404.1 136 408 L 138.90039 410.90039 L 136 413.80078 C 132.1 417.70078 132.1 424.00039 136 427.90039 C 139.9 431.80039 146.19961 431.80039 150.09961 427.90039 L 160.09961 417.90039 C 163.99961 414.00039 163.99961 407.70078 160.09961 403.80078 L 150.09961 393.90039 C 148.14961 391.95039 145.60078 390.97461 143.05078 390.97461 z"></path></svg>