<svg viewBox="0 0 648 633" fill="none" xmlns="http://www.w3.org/2000/svg">
<g clip-path="url(#clip0_244_2)">
<path d="M411.146 142.174H236.636C232.659 142.179 228.847 143.761 226.035 146.573C223.223 149.385 221.641 153.197 221.636 157.174V545.024L219.636 545.634L176.826 558.744C174.797 559.363 172.606 559.151 170.733 558.155C168.86 557.16 167.458 555.462 166.836 553.434L39.496 137.484C38.8762 135.455 39.0874 133.263 40.0831 131.39C41.0788 129.517 42.7775 128.115 44.806 127.494L110.776 107.294L302.026 48.754L367.996 28.554C369 28.2452 370.055 28.1373 371.101 28.2366C372.146 28.3359 373.162 28.6403 374.09 29.1326C375.018 29.6249 375.839 30.2953 376.508 31.1054C377.177 31.9156 377.679 32.8496 377.986 33.854L410.536 140.174L411.146 142.174Z" fill="#F2F2F2"/>
<path d="M449.226 140.174L409.996 12.034C409.343 9.89897 408.276 7.91348 406.856 6.19097C405.436 4.46847 403.69 3.04272 401.718 1.99518C399.747 0.947646 397.588 0.298857 395.366 0.0858889C393.143 -0.12708 390.901 0.0999459 388.766 0.753993L296.016 29.144L104.776 87.694L12.026 116.094C7.71737 117.417 4.1097 120.396 1.99489 124.376C-0.119927 128.356 -0.569077 133.013 0.746023 137.324L134.826 575.254C135.894 578.734 138.05 581.78 140.976 583.945C143.903 586.11 147.446 587.28 151.086 587.284C152.771 587.285 154.446 587.032 156.056 586.534L219.636 567.074L221.636 566.454V564.364L219.636 564.974L155.466 584.624C151.663 585.783 147.555 585.387 144.044 583.521C140.533 581.656 137.904 578.474 136.736 574.674L2.66602 136.734C2.08721 134.851 1.88552 132.872 2.0725 130.911C2.25949 128.95 2.83147 127.045 3.75571 125.305C4.67995 123.565 5.93828 122.025 7.45867 120.772C8.97905 119.519 10.7316 118.579 12.616 118.004L105.366 89.604L296.606 31.064L389.356 2.66399C390.785 2.22777 392.272 2.00536 393.766 2.00399C396.973 2.01132 400.094 3.04533 402.67 4.95459C405.247 6.86384 407.145 9.54801 408.086 12.614L447.136 140.174L447.756 142.174H449.836L449.226 140.174Z" fill="#3F3D56"/>
<path d="M122.68 127.82C120.753 127.818 118.877 127.199 117.328 126.054C115.778 124.908 114.636 123.296 114.07 121.454L101.19 79.382C100.844 78.252 100.724 77.0648 100.836 75.8884C100.949 74.712 101.293 73.5692 101.847 72.5255C102.401 71.4818 103.156 70.5574 104.067 69.8053C104.979 69.0532 106.03 68.488 107.16 68.142L283.1 14.278C285.382 13.5818 287.848 13.8196 289.955 14.939C292.062 16.0584 293.639 17.9681 294.34 20.249L307.22 62.321C307.916 64.6033 307.679 67.0686 306.559 69.176C305.44 71.2834 303.531 72.8607 301.25 73.562L125.31 127.426C124.458 127.688 123.571 127.821 122.68 127.821V127.82Z" fill="currentColor"/>
<path d="M190.154 44.955C201.2 44.955 210.154 36.0007 210.154 24.955C210.154 13.9093 201.2 4.95499 190.154 4.95499C179.108 4.95499 170.154 13.9093 170.154 24.955C170.154 36.0007 179.108 44.955 190.154 44.955Z" fill="currentColor"/>
<path d="M190.154 37.62C197.149 37.62 202.819 31.9497 202.819 24.955C202.819 17.9603 197.149 12.29 190.154 12.29C183.159 12.29 177.489 17.9603 177.489 24.955C177.489 31.9497 183.159 37.62 190.154 37.62Z" fill="white"/>
<path d="M602.636 582.174H264.636C262.382 582.171 260.222 581.275 258.629 579.681C257.035 578.088 256.139 575.928 256.136 573.674V168.674C256.139 166.42 257.035 164.26 258.629 162.667C260.222 161.073 262.382 160.177 264.636 160.174H602.636C604.89 160.177 607.05 161.073 608.643 162.667C610.237 164.26 611.133 166.42 611.136 168.674V573.674C611.133 575.928 610.237 578.088 608.643 579.681C607.05 581.275 604.89 582.171 602.636 582.174Z" fill="#E6E6E6"/>
<path d="M447.136 140.174H236.636C232.129 140.18 227.809 141.973 224.622 145.16C221.435 148.347 219.642 152.667 219.636 157.174V564.974L221.636 564.364V157.174C221.641 153.197 223.223 149.385 226.035 146.573C228.847 143.761 232.659 142.179 236.636 142.174H447.756L447.136 140.174ZM630.636 140.174H236.636C232.129 140.18 227.809 141.973 224.622 145.16C221.435 148.347 219.642 152.667 219.636 157.174V615.174C219.642 619.681 221.435 624.001 224.622 627.188C227.809 630.375 232.129 632.168 236.636 632.174H630.636C635.143 632.168 639.463 630.375 642.65 627.188C645.837 624.001 647.63 619.681 647.636 615.174V157.174C647.63 152.667 645.837 148.347 642.65 145.16C639.463 141.973 635.143 140.18 630.636 140.174V140.174ZM645.636 615.174C645.631 619.151 644.049 622.963 641.237 625.775C638.425 628.587 634.613 630.169 630.636 630.174H236.636C232.659 630.169 228.847 628.587 226.035 625.775C223.223 622.963 221.641 619.151 221.636 615.174V157.174C221.641 153.197 223.223 149.385 226.035 146.573C228.847 143.761 232.659 142.179 236.636 142.174H630.636C634.613 142.179 638.425 143.761 641.237 146.573C644.049 149.385 645.631 153.197 645.636 157.174V615.174Z" fill="#3F3D56"/>
<path d="M525.636 184.174H341.636C339.25 184.171 336.962 183.222 335.275 181.535C333.588 179.848 332.639 177.56 332.636 175.174V131.174C332.639 128.788 333.588 126.5 335.275 124.813C336.962 123.126 339.25 122.177 341.636 122.174H525.636C528.022 122.177 530.31 123.126 531.997 124.813C533.684 126.5 534.633 128.788 534.636 131.174V175.174C534.633 177.56 533.684 179.848 531.997 181.535C530.31 183.222 528.022 184.171 525.636 184.174V184.174Z" fill="currentColor"/>
<path d="M433.636 125.174C444.682 125.174 453.636 116.22 453.636 105.174C453.636 94.1283 444.682 85.174 433.636 85.174C422.59 85.174 413.636 94.1283 413.636 105.174C413.636 116.22 422.59 125.174 433.636 125.174Z" fill="currentColor"/>
<path d="M433.636 117.356C440.364 117.356 445.818 111.902 445.818 105.174C445.818 98.4461 440.364 92.992 433.636 92.992C426.908 92.992 421.454 98.4461 421.454 105.174C421.454 111.902 426.908 117.356 433.636 117.356Z" fill="white"/>
</g>
<defs>
<clipPath id="clip0_244_2">
<rect width="647.636" height="632.174" fill="white"/>
</clipPath>
</defs>
</svg>
