<svg viewBox="0 0 39 36" fill="none" xmlns="http://www.w3.org/2000/svg">
<path d="M38.1768 29.3132C37.8656 28.8179 37.4587 28.3895 36.98 28.0531C36.5014 27.7168 35.9604 27.4793 35.3889 27.3544C33.2022 26.8458 31.3057 25.4924 30.1139 23.5898C28.922 21.6872 28.5317 19.3902 29.0282 17.2008C29.2191 16.3545 29.1557 15.4708 28.846 14.6605C28.5362 13.8501 27.9939 13.1494 27.2873 12.6463C26.5806 12.1431 25.7409 11.8601 24.8738 11.8325C24.0068 11.805 23.151 12.0343 22.4138 12.4916C21.6766 12.949 21.091 13.6138 20.7305 14.4029C20.37 15.192 20.2507 16.0699 20.3875 16.9266C20.5243 17.7832 20.9113 18.5803 21.4997 19.2178C22.088 19.8552 22.8517 20.3047 23.6946 20.5095C24.7852 20.7555 25.8164 21.2143 26.7293 21.8596C27.6421 22.5049 28.4187 23.3241 29.0144 24.27C29.61 25.216 30.0132 26.2703 30.2006 27.3724C30.3881 28.4745 30.3562 29.6027 30.1067 30.6925C29.959 31.395 29.9853 32.123 30.1834 32.8129C30.3816 33.5029 30.7454 34.1339 31.2433 34.6511C31.7412 35.1682 32.358 35.5558 33.0399 35.7799C33.7219 36.0041 34.4483 36.058 35.1559 35.9371C35.8635 35.8161 36.5308 35.524 37.0996 35.0861C37.6685 34.6481 38.1215 34.0778 38.4194 33.4247C38.7172 32.7715 38.8509 32.0554 38.8086 31.3388C38.7663 30.6222 38.5494 29.9268 38.1768 29.3132Z" fill="#2680FE"/>
<path d="M11.1127 24.4272C11.8828 24.8474 12.7608 25.0279 13.6341 24.9457C14.5075 24.8634 15.3363 24.5221 16.0144 23.9655C16.6924 23.4088 17.1887 22.6623 17.4395 21.8218C17.6903 20.9811 17.6842 20.0848 17.422 19.2476C17.0897 18.1802 16.9713 17.0576 17.0737 15.9444C17.176 14.8311 17.4971 13.7489 18.0185 12.76C18.5399 11.7711 19.2514 10.8948 20.1121 10.1813C20.9728 9.46783 21.9659 8.93134 23.0344 8.60246C23.8631 8.34289 24.5965 7.84398 25.1423 7.16858C25.6881 6.49317 26.0219 5.67141 26.1018 4.80668C26.1817 3.94196 26.004 3.07292 25.5911 2.309C25.1782 1.54502 24.5486 0.920239 23.7815 0.513293C23.0144 0.106347 22.144 -0.0646464 21.28 0.0219287C20.4159 0.10845 19.5967 0.448605 18.9255 0.999645C18.2543 1.55063 17.7611 2.28787 17.5079 3.11852C17.2548 3.94918 17.253 4.83617 17.5027 5.66785C18.1583 7.81498 17.9366 10.1344 16.8862 12.1185C15.8357 14.1026 14.042 15.5896 11.8977 16.2543C11.0512 16.4998 10.2978 16.9937 9.73522 17.6722C9.17259 18.3507 8.82656 19.1824 8.74197 20.0597C8.65745 20.937 8.8382 21.8195 9.26089 22.593C9.68357 23.3664 10.3287 23.9951 11.1127 24.3978V24.4272Z" fill="#2680FE"/>
<path d="M22.4401 23.7081C21.8549 23.7286 21.2796 23.8658 20.748 24.1114C20.2164 24.3571 19.7391 24.7063 19.3441 25.1387C17.8118 26.7777 15.6929 27.7433 13.4507 27.8244C11.2084 27.9055 9.02521 27.0955 7.37845 25.5716C6.95296 25.1723 6.45238 24.8616 5.90576 24.6576C5.35919 24.4536 4.77748 24.3603 4.19447 24.3831C3.47686 24.4169 2.77838 24.6259 2.16012 24.9918C1.5418 25.3576 1.02252 25.8693 0.647483 26.482C0.272396 27.0948 0.0530479 27.79 0.00846655 28.507C-0.0360609 29.2241 0.0955271 29.9411 0.391855 30.5956C0.688184 31.25 1.14014 31.822 1.70838 32.2617C2.27661 32.7013 2.94377 32.9951 3.65168 33.1175C4.35959 33.2399 5.08675 33.1872 5.76959 32.964C6.45249 32.7408 7.07032 32.3538 7.56918 31.8369C8.32808 31.0152 9.2416 30.3513 10.2574 29.8833C11.2733 29.4153 12.3715 29.1522 13.4892 29.1093C14.6068 29.0664 15.722 29.2444 16.7708 29.6331C17.8195 30.0219 18.7813 30.6137 19.601 31.3747C20.1346 31.8569 20.7782 32.2009 21.4756 32.3767C22.173 32.5526 22.9028 32.555 23.6012 32.3835C24.2997 32.2121 24.9455 31.8722 25.4822 31.3934C26.0189 30.9147 26.4301 30.3117 26.6799 29.6372C26.9296 28.9628 27.0103 28.2375 26.915 27.5246C26.8196 26.8118 26.5509 26.1332 26.1326 25.5482C25.7143 24.9632 25.159 24.4896 24.5153 24.1688C23.8716 23.848 23.1591 23.6898 22.4401 23.7081Z" fill="#2680FE"/>
</svg>
