<svg xmlns="http://www.w3.org/2000/svg" viewBox="0 0 480 480"><path d="M 38.666016 0.0078125 C 34.401233 0.1833374 31 3.6921875 31 8 C 31 10.778 33.058844 12.284672 35.089844 12.138672 C 37.689844 11.952672 40.312109 11.952672 42.912109 12.138672 C 45.130109 12.297672 47 10.495484 47 8.2714844 C 47 4.0094844 43.782297 0.29057812 39.529297 0.017578125 C 39.238047 -0.001109375 38.950334 -0.0038891602 38.666016 0.0078125 z M 441 0.060546875 C 437 0.060171875 433 2.706 433 8 C 433 10.372 434.99338 12.279094 437.35938 12.121094 C 439.78038 11.960094 442.22062 11.960094 444.64062 12.121094 C 447.00762 12.279094 449 10.372 449 8 C 449 2.7075 445 0.060921875 441 0.060546875 z M 39 28 A 39 39 0 0 0 39 106 A 39 39 0 0 0 39 28 z M 441 28 A 39 39 0 0 0 441 106 A 39 39 0 0 0 441 28 z M 379.88477 60.826172 C 379.66369 60.829977 379.43972 60.846562 379.21484 60.875 C 311.24184 69.469 275.17538 104.89005 233.60938 148.62305 C 231.89838 150.42305 231.48602 153.08403 232.54102 155.33203 C 233.14002 156.60803 233.73331 157.89073 234.32031 159.17773 C 236.08031 163.03273 241.19919 163.86597 244.11719 160.79297 C 285.27419 117.45397 318.19861 84.795297 380.84961 76.779297 C 384.02561 76.373297 386.29952 73.580766 386.10352 70.384766 C 386.03052 69.192766 385.99695 68.004313 386.00195 66.820312 C 386.0132 63.419062 383.20094 60.769091 379.88477 60.826172 z M 100.29492 61.408203 C 96.912722 61.22676 94.027109 63.950938 93.998047 67.4375 C 93.988047 68.6485 93.939609 69.865984 93.849609 71.083984 C 93.625609 74.117984 95.791062 76.832516 98.789062 77.353516 C 263.07106 105.88752 201.48534 388.92216 379.02734 418.53516 C 382.69434 419.14716 385.97095 416.29322 386.00195 412.57422 C 386.01195 411.38022 386.06044 410.1777 386.14844 408.9707 C 386.37144 405.9177 384.18887 403.18892 381.17188 402.66992 C 215.98187 374.26192 277.73552 91.205375 100.97852 61.484375 C 100.74933 61.445813 100.5204 61.420299 100.29492 61.408203 z M 37.109375 121.96875 C 33.754375 121.85275 31 124.60784 31 127.96484 L 31 179.03516 C 31 182.39116 33.755375 185.1492 37.109375 185.0332 C 38.369375 184.9902 39.629672 184.9902 40.888672 185.0332 C 44.243672 185.1482 47 182.39216 47 179.03516 L 47 127.96484 C 47 124.60784 44.245625 121.85275 40.890625 121.96875 C 39.631625 122.01175 38.368375 122.01175 37.109375 121.96875 z M 439.10938 121.96875 C 435.75438 121.85275 433 124.60784 433 127.96484 L 433 179.03516 C 433 182.39116 435.75538 185.1492 439.10938 185.0332 C 440.36937 184.9902 441.62967 184.9902 442.88867 185.0332 C 446.24367 185.1482 449 182.39216 449 179.03516 L 449 127.96484 C 449 124.60784 446.24562 121.85275 442.89062 121.96875 C 441.63162 122.01175 440.36838 122.01175 439.10938 121.96875 z M 192.03906 190.9375 C 190.68794 190.89315 189.30605 191.304 188.13867 192.23438 C 164.63767 210.96138 137.14948 225.3617 99.146484 230.2207 C 96.015484 230.6207 93.690625 233.35 93.890625 236.5 C 93.966625 237.697 94.003 238.90595 94 240.12695 C 93.991 243.77795 97.163109 246.59372 100.78711 246.13672 C 142.00311 240.92472 172.00175 225.28739 197.09375 205.52539 C 199.19575 203.86939 199.9558 201.03483 198.9668 198.54883 C 198.4468 197.24383 197.92348 195.9453 197.39648 194.6543 C 196.45648 192.35055 194.29093 191.01142 192.03906 190.9375 z M 39 201 A 39 39 0 0 0 39 279 A 39 39 0 0 0 39 201 z M 441 201 A 39 39 0 0 0 441 279 A 39 39 0 0 0 441 201 z M 379.88477 233.82422 C 379.66369 233.82802 379.44167 233.84266 379.2168 233.87109 C 337.7088 239.11409 307.57986 254.94783 282.38086 274.92383 C 280.28586 276.58383 279.53139 279.41644 280.52539 281.89844 C 281.04539 283.19844 281.5687 284.49234 282.0957 285.77734 C 283.6067 289.46234 288.25333 290.66873 291.36133 288.17773 C 314.97333 269.25573 342.58247 254.6753 380.85547 249.7793 C 384.02847 249.3733 386.29952 246.57977 386.10352 243.38477 C 386.03052 242.19277 385.99795 241.00241 386.00195 239.81641 C 386.01414 236.41609 383.20094 233.76713 379.88477 233.82422 z M 37.109375 294.96875 C 33.754375 294.85275 31 297.60784 31 300.96484 L 31 352.03516 C 31 355.39116 33.755375 358.1492 37.109375 358.0332 C 38.369375 357.9902 39.629672 357.9902 40.888672 358.0332 C 44.243672 358.1482 47 355.39216 47 352.03516 L 47 300.96484 C 47 297.60784 44.245625 294.85275 40.890625 294.96875 C 39.631625 295.01175 38.368375 295.01175 37.109375 294.96875 z M 439.10938 294.96875 C 435.75438 294.85275 433 297.60784 433 300.96484 L 433 352.03516 C 433 355.39116 435.75538 358.1492 439.10938 358.0332 C 440.36937 357.9902 441.62967 357.9902 442.88867 358.0332 C 446.24367 358.1482 449 355.39216 449 352.03516 L 449 300.96484 C 449 297.60784 446.24562 294.85275 442.89062 294.96875 C 441.63162 295.01175 440.36838 295.01175 439.10938 294.96875 z M 240.07227 317.81641 C 238.42114 317.74193 236.72756 318.33983 235.45312 319.68164 C 194.78913 362.48564 161.78139 395.2107 99.150391 403.2207 C 96.017391 403.6217 93.688672 406.34995 93.888672 409.50195 C 93.964672 410.69795 94.001047 411.90695 93.998047 413.12695 C 93.989047 416.77895 97.164109 419.59277 100.78711 419.13477 C 171.54311 410.18277 209.28831 370.58 245.82031 332 C 247.79031 329.919 248.0613 327.29133 247.0293 325.11133 C 246.4273 323.83933 245.83123 322.5623 245.24023 321.2793 C 244.2463 319.11761 242.19514 317.91216 240.07227 317.81641 z M 39 374 A 39 39 0 0 0 39 452 A 39 39 0 0 0 39 374 z M 441 374 A 39 39 0 0 0 441 452 A 39 39 0 0 0 441 374 z M 35.087891 467.85938 C 33.084891 467.71638 31 469.198 31 472 C 31 476.595 34.869297 480.28142 39.529297 479.98242 C 43.782297 479.70942 47 475.99052 47 471.72852 C 47 469.50452 45.129156 467.70038 42.910156 467.85938 C 40.310156 468.04538 37.687891 468.04537 35.087891 467.85938 z M 437.08789 467.85938 C 435.08489 467.71638 433 469.198 433 472 C 433 476.595 436.8693 480.28142 441.5293 479.98242 C 445.7823 479.70942 449 475.99052 449 471.72852 C 449 469.50452 447.12916 467.70038 444.91016 467.85938 C 442.31016 468.04538 439.68789 468.04537 437.08789 467.85938 z"></path></svg>